<?xml version="1.0" encoding="utf-8"?>
<svg viewBox="8.284 6.247 169.76 57" xmlns="http://www.w3.org/2000/svg">
  <g fill="none" fill-rule="evenodd" transform="matrix(1, 0, 0, 1, 8.284286, 6.247167)">
    <path d="M81.67 47.01c0 .373-.095.717-.285 1.03a2.01 2.01 0 01-.84.75c-.37.187-.818.28-1.345.28-.793 0-1.447-.193-1.96-.58-.513-.387-.793-.927-.84-1.62h1.82c.027.267.122.477.285.63.163.153.372.23.625.23.22 0 .393-.06.52-.18a.63.63 0 00.19-.48.62.62 0 00-.175-.45 1.372 1.372 0 00-.435-.295 9.957 9.957 0 00-.72-.275 8.84 8.84 0 01-1.095-.445 2.017 2.017 0 01-.73-.64c-.203-.283-.305-.652-.305-1.105 0-.42.107-.783.32-1.09.213-.307.508-.542.885-.705a3.228 3.228 0 011.295-.245c.787 0 1.412.187 1.875.56.463.373.725.887.785 1.54h-1.85a.949.949 0 00-.255-.555c-.137-.137-.322-.205-.555-.205-.2 0-.362.053-.485.16-.123.107-.185.263-.185.47 0 .167.055.308.165.425.11.117.248.212.415.285.167.073.407.167.72.28.453.153.823.305 1.11.455.287.15.533.368.74.655.207.287.31.66.31 1.12zm7.555-5.08v1.36h-1.92V49h-1.72v-5.71h-1.9v-1.36h5.54zm5.605-.11c.667 0 1.272.155 1.815.465.543.31.972.74 1.285 1.29.313.55.47 1.172.47 1.865 0 .693-.158 1.317-.475 1.87a3.414 3.414 0 01-1.29 1.295 3.578 3.578 0 01-1.805.465c-.66 0-1.262-.155-1.805-.465a3.414 3.414 0 01-1.29-1.295c-.317-.553-.475-1.177-.475-1.87 0-.693.158-1.315.475-1.865.317-.55.747-.98 1.29-1.29a3.578 3.578 0 011.805-.465zm0 1.59c-.56 0-1.005.182-1.335.545-.33.363-.495.858-.495 1.485 0 .62.165 1.113.495 1.48.33.367.775.55 1.335.55.553 0 .997-.183 1.33-.55.333-.367.5-.86.5-1.48s-.165-1.113-.495-1.48c-.33-.367-.775-.55-1.335-.55zm7.765 3.11V49h-1.71v-7.07h2.77c.84 0 1.48.208 1.92.625.44.417.66.978.66 1.685 0 .44-.098.832-.295 1.175a2.045 2.045 0 01-.875.81c-.387.197-.857.295-1.41.295h-1.06zm.87-1.37c.687 0 1.03-.303 1.03-.91 0-.62-.343-.93-1.03-.93h-.87v1.84h.87zm11.89-3.29c.9 0 1.645.237 2.235.71.59.473.972 1.113 1.145 1.92h-1.81a1.66 1.66 0 00-.615-.77 1.719 1.719 0 00-.985-.28c-.5 0-.903.183-1.21.55-.307.367-.46.857-.46 1.47s.153 1.102.46 1.465c.307.363.71.545 1.21.545.38 0 .708-.093.985-.28.277-.187.482-.44.615-.76h1.81c-.173.8-.555 1.438-1.145 1.915-.59.477-1.335.715-2.235.715-.687 0-1.29-.152-1.81-.455a3.088 3.088 0 01-1.205-1.275c-.283-.547-.425-1.17-.425-1.87 0-.7.142-1.323.425-1.87a3.088 3.088 0 011.205-1.275c.52-.303 1.123-.455 1.81-.455zm9.225-.04c.667 0 1.272.155 1.815.465.543.31.972.74 1.285 1.29.313.55.47 1.172.47 1.865 0 .693-.158 1.317-.475 1.87a3.414 3.414 0 01-1.29 1.295 3.578 3.578 0 01-1.805.465c-.66 0-1.262-.155-1.805-.465a3.414 3.414 0 01-1.29-1.295c-.317-.553-.475-1.177-.475-1.87 0-.693.158-1.315.475-1.865.317-.55.747-.98 1.29-1.29a3.578 3.578 0 011.805-.465zm0 1.59c-.56 0-1.005.182-1.335.545-.33.363-.495.858-.495 1.485 0 .62.165 1.113.495 1.48.33.367.775.55 1.335.55.553 0 .997-.183 1.33-.55.333-.367.5-.86.5-1.48s-.165-1.113-.495-1.48c-.33-.367-.775-.55-1.335-.55zm7.375-1.48l1.73 5.32 1.73-5.32h1.83l-2.46 7.07h-2.21l-2.45-7.07h1.83zm9.185 0V49h-1.71v-7.07h1.71zm9.065 3.52c0 .693-.148 1.308-.445 1.845a3.117 3.117 0 01-1.28 1.255c-.557.3-1.212.45-1.965.45h-2.67v-7.07h2.67c.76 0 1.417.147 1.97.44a3.07 3.07 0 011.275 1.24c.297.533.445 1.147.445 1.84zm-3.84 2.02c.667 0 1.185-.177 1.555-.53.37-.353.555-.85.555-1.49s-.185-1.137-.555-1.49c-.37-.353-.888-.53-1.555-.53h-.81v4.04h.81zm10.215-2.69v1.42h-4.41v-1.42h4.41zm2.595-1.25v-1.6h2.86V49h-1.8v-5.47h-1.06zm7.155 3.3c.093.58.387.87.88.87.387 0 .658-.177.815-.53.157-.353.228-.903.215-1.65a1.305 1.305 0 01-.585.645 1.925 1.925 0 01-.965.235c-.667 0-1.193-.202-1.58-.605-.387-.403-.58-.982-.58-1.735 0-.473.097-.893.29-1.26.193-.367.478-.652.855-.855.377-.203.828-.305 1.355-.305.713 0 1.27.15 1.67.45.4.3.677.708.83 1.225.153.517.23 1.138.23 1.865 0 1.28-.195 2.248-.585 2.905-.39.657-1.045.985-1.965.985-.507 0-.942-.102-1.305-.305a2.172 2.172 0 01-.84-.815 2.537 2.537 0 01-.335-1.12h1.6zm1.78-2.69c0-.307-.087-.555-.26-.745-.173-.19-.427-.285-.76-.285-.3 0-.535.083-.705.25-.17.167-.255.41-.255.73s.087.565.26.735c.173.17.41.255.71.255.287 0 .527-.082.72-.245.193-.163.29-.395.29-.695z" fill="#56657C"/>
    <path d="M28 45c-8.284 0-15-6.716-15-15 0-8.284 6.716-15 15-15 8.284 0 15 6.716 15 15 0 8.284-6.716 15-15 15zm0-4c6.075 0 11-4.925 11-11s-4.925-11-11-11-11 4.925-11 11 4.925 11 11 11zm0-31a5 5 0 110-10 5 5 0 010 10zm0-2a3 3 0 100-6 3 3 0 000 6zm25 27a5 5 0 110-10 5 5 0 010 10zm0-2a3 3 0 100-6 3 3 0 000 6zm-5-18a5 5 0 110-10 5 5 0 010 10zm0-2a3 3 0 100-6 3 3 0 000 6zM5 44a5 5 0 110-10 5 5 0 010 10zm0-2a3 3 0 100-6 3 3 0 000 6zm3-20a5 5 0 110-10 5 5 0 010 10zm0-2a3 3 0 100-6 3 3 0 000 6zm11 37a5 5 0 110-10 5 5 0 010 10zm0-2a3 3 0 100-6 3 3 0 000 6zm24.5-2a4.5 4.5 0 110-9 4.5 4.5 0 010 9zm0-2a2.5 2.5 0 100-5 2.5 2.5 0 000 5z" fill-rule="nonzero" fill="#082048"/>
    <text transform="matrix(1, 0, 0, 1, 39, -19)" style="fill: rgb(8, 32, 72); font-family: &quot;Roboto Slab&quot;; font-size: 28px; stroke: rgb(8, 32, 72); white-space: pre;"><tspan x="39.792" y="48.076">Praise</tspan><tspan x="39.792" dy="1em">​</tspan></text>
  </g>
</svg>